<svg xmlns="http://www.w3.org/2000/svg" width="760" height="110" viewBox="0 0 760 110">
<rect width="760" height="110" fill="#1e1e2e" rx="6"/>
<text x="10" y="16" font-family="monospace" font-size="11" font-weight="bold" fill="#c9d1d9">PSOR — Port Set Output Register</text>
<text x="31.2" y="32" text-anchor="middle" font-size="7" fill="#6e7681">31</text>
<text x="53.8" y="32" text-anchor="middle" font-size="7" fill="#6e7681">30</text>
<text x="76.2" y="32" text-anchor="middle" font-size="7" fill="#6e7681">29</text>
<text x="98.8" y="32" text-anchor="middle" font-size="7" fill="#6e7681">28</text>
<text x="121.2" y="32" text-anchor="middle" font-size="7" fill="#6e7681">27</text>
<text x="143.8" y="32" text-anchor="middle" font-size="7" fill="#6e7681">26</text>
<text x="166.2" y="32" text-anchor="middle" font-size="7" fill="#6e7681">25</text>
<text x="188.8" y="32" text-anchor="middle" font-size="7" fill="#6e7681">24</text>
<text x="211.2" y="32" text-anchor="middle" font-size="7" fill="#6e7681">23</text>
<text x="233.8" y="32" text-anchor="middle" font-size="7" fill="#6e7681">22</text>
<text x="256.2" y="32" text-anchor="middle" font-size="7" fill="#6e7681">21</text>
<text x="278.8" y="32" text-anchor="middle" font-size="7" fill="#6e7681">20</text>
<text x="301.2" y="32" text-anchor="middle" font-size="7" fill="#6e7681">19</text>
<text x="323.8" y="32" text-anchor="middle" font-size="7" fill="#6e7681">18</text>
<text x="346.2" y="32" text-anchor="middle" font-size="7" fill="#6e7681">17</text>
<text x="368.8" y="32" text-anchor="middle" font-size="7" fill="#6e7681">16</text>
<text x="391.2" y="32" text-anchor="middle" font-size="7" fill="#6e7681">15</text>
<text x="413.8" y="32" text-anchor="middle" font-size="7" fill="#6e7681">14</text>
<text x="436.2" y="32" text-anchor="middle" font-size="7" fill="#6e7681">13</text>
<text x="458.8" y="32" text-anchor="middle" font-size="7" fill="#6e7681">12</text>
<text x="481.2" y="32" text-anchor="middle" font-size="7" fill="#6e7681">11</text>
<text x="503.8" y="32" text-anchor="middle" font-size="7" fill="#6e7681">10</text>
<text x="526.2" y="32" text-anchor="middle" font-size="7" fill="#6e7681">9</text>
<text x="548.8" y="32" text-anchor="middle" font-size="7" fill="#6e7681">8</text>
<text x="571.2" y="32" text-anchor="middle" font-size="7" fill="#6e7681">7</text>
<text x="593.8" y="32" text-anchor="middle" font-size="7" fill="#6e7681">6</text>
<text x="616.2" y="32" text-anchor="middle" font-size="7" fill="#6e7681">5</text>
<text x="638.8" y="32" text-anchor="middle" font-size="7" fill="#6e7681">4</text>
<text x="661.2" y="32" text-anchor="middle" font-size="7" fill="#6e7681">3</text>
<text x="683.8" y="32" text-anchor="middle" font-size="7" fill="#6e7681">2</text>
<text x="706.2" y="32" text-anchor="middle" font-size="7" fill="#6e7681">1</text>
<text x="728.8" y="32" text-anchor="middle" font-size="7" fill="#6e7681">0</text>
<rect x="20" y="36" width="720" height="40" fill="#30363d" rx="2"/>
<rect x="20.0" y="36" width="720.0" height="40" fill="#dc2626" rx="2" stroke="#0d1117" stroke-width="1"/>
<text x="380.0" y="54" text-anchor="middle" font-size="8" fill="#fff" font-weight="bold">PTSO</text>
<text x="380.0" y="68" text-anchor="middle" font-size="6" fill="#e2e8f0">WO</text>
<text x="20" y="98" font-size="8" fill="#6e7681">Offset: 0x04  |  Reset: 0x00000000  |  ■ RW (Purple)  ■ RO (Green)  ■ W1C (Amber)  ■ WO (Red)  □ Reserved (Grey)</text>
</svg>